<mxfile host="65bd71144e">
    <diagram id="3UG1lTS0_SeSPk5oXDNw" name="Page-1">
        <mxGraphModel dx="576" dy="431" grid="1" gridSize="10" guides="1" tooltips="1" connect="1" arrows="1" fold="1" page="1" pageScale="1" pageWidth="850" pageHeight="1100" math="0" shadow="0">
            <root>
                <mxCell id="0"/>
                <mxCell id="1" parent="0"/>
                <mxCell id="3" value="" style="rounded=0;whiteSpace=wrap;html=1;fillColor=#FFFFFF;" vertex="1" parent="1">
                    <mxGeometry x="20" y="70" width="470" height="290" as="geometry"/>
                </mxCell>
                <mxCell id="4" value="" style="rounded=0;whiteSpace=wrap;html=1;" vertex="1" parent="1">
                    <mxGeometry x="20" y="70" width="470" height="40" as="geometry"/>
                </mxCell>
                <mxCell id="5" value="&lt;h1&gt;&lt;font color=&quot;#3333ff&quot;&gt;Heading&lt;/font&gt;&lt;/h1&gt;&lt;p&gt;&lt;font color=&quot;#4d4d4d&quot;&gt;Lorem ipsum dolor sit amet, consectetur adipisicing elit, sed do eiusmod tempor incididunt ut labore et dolore magna aliqua.&lt;/font&gt;&lt;/p&gt;" style="text;html=1;spacing=5;spacingTop=-20;whiteSpace=wrap;overflow=hidden;rounded=0;fillColor=none;strokeColor=#FF6666;strokeWidth=0;" vertex="1" parent="1">
                    <mxGeometry x="40" y="170" width="190" height="120" as="geometry"/>
                </mxCell>
                <mxCell id="6" value="" style="whiteSpace=wrap;html=1;aspect=fixed;labelBackgroundColor=none;strokeColor=#FF6666;strokeWidth=0;fontColor=#3333FF;fillColor=default;" vertex="1" parent="1">
                    <mxGeometry x="300" y="160" width="130" height="130" as="geometry"/>
                </mxCell>
                <mxCell id="jzPdk69SEkt34FGGg7_E-9" value="" style="edgeStyle=none;html=1;fontColor=#3333FF;" edge="1" parent="1" source="jzPdk69SEkt34FGGg7_E-6" target="jzPdk69SEkt34FGGg7_E-8">
                    <mxGeometry relative="1" as="geometry"/>
                </mxCell>
                <mxCell id="jzPdk69SEkt34FGGg7_E-6" value="" style="rounded=1;whiteSpace=wrap;html=1;labelBackgroundColor=none;strokeColor=#56517e;strokeWidth=0;fillColor=#d0cee2;" vertex="1" parent="1">
                    <mxGeometry x="210" y="800" width="120" height="60" as="geometry"/>
                </mxCell>
                <mxCell id="jzPdk69SEkt34FGGg7_E-7" value="Start" style="text;html=1;strokeColor=none;fillColor=none;align=center;verticalAlign=middle;whiteSpace=wrap;rounded=0;labelBackgroundColor=none;strokeWidth=0;fontColor=#3333FF;" vertex="1" parent="1">
                    <mxGeometry x="240" y="815" width="60" height="30" as="geometry"/>
                </mxCell>
                <mxCell id="jzPdk69SEkt34FGGg7_E-8" value="" style="rhombus;whiteSpace=wrap;html=1;fillColor=#d0cee2;strokeColor=#56517e;rounded=1;labelBackgroundColor=none;strokeWidth=0;" vertex="1" parent="1">
                    <mxGeometry x="230" y="930" width="80" height="80" as="geometry"/>
                </mxCell>
                <mxCell id="jzPdk69SEkt34FGGg7_E-12" value="" style="edgeStyle=none;html=1;fontColor=#3333FF;" edge="1" parent="1" source="jzPdk69SEkt34FGGg7_E-10" target="jzPdk69SEkt34FGGg7_E-11">
                    <mxGeometry relative="1" as="geometry"/>
                </mxCell>
                <mxCell id="jzPdk69SEkt34FGGg7_E-10" value="User loged in" style="text;html=1;strokeColor=none;fillColor=none;align=center;verticalAlign=middle;whiteSpace=wrap;rounded=0;labelBackgroundColor=none;strokeWidth=0;fontColor=#3333FF;" vertex="1" parent="1">
                    <mxGeometry x="240" y="955" width="60" height="30" as="geometry"/>
                </mxCell>
                <mxCell id="jzPdk69SEkt34FGGg7_E-11" value="" style="whiteSpace=wrap;html=1;labelBackgroundColor=none;strokeColor=#FF6666;strokeWidth=0;fontColor=#3333FF;fillColor=default;" vertex="1" parent="1">
                    <mxGeometry x="70" y="940" width="120" height="60" as="geometry"/>
                </mxCell>
                <mxCell id="jzPdk69SEkt34FGGg7_E-13" value="continue to app" style="text;html=1;strokeColor=none;fillColor=none;align=center;verticalAlign=middle;whiteSpace=wrap;rounded=0;labelBackgroundColor=none;strokeWidth=0;fontColor=#3333FF;" vertex="1" parent="1">
                    <mxGeometry x="100" y="955" width="60" height="30" as="geometry"/>
                </mxCell>
            </root>
        </mxGraphModel>
    </diagram>
    <diagram id="CTyEgUu-kJV9uU73obBc" name="Page-2">
        <mxGraphModel dx="490" dy="366" grid="1" gridSize="10" guides="1" tooltips="1" connect="1" arrows="1" fold="1" page="1" pageScale="1" pageWidth="850" pageHeight="1100" math="0" shadow="0">
            <root>
                <mxCell id="0"/>
                <mxCell id="1" parent="0"/>
            </root>
        </mxGraphModel>
    </diagram>
</mxfile>